# xmcd
#
# Track frame offsets:
#	150
#	19844
#	32916
#	55312
#	75424
#	90617
#	111239
#	130231
#	152026
#	167756
#
# Disc length: 2550 seconds
#
# Revision: 1
# Processed by: cddbd v1.4PL0 Copyright (c) Steve Scherf et al.
# Submitted via: audiograbber 1.81.03
#
DISCID=7809f40a
DTITLE=Alice Texas - Sad Days
DYEAR=1900
DGENRE=Country
TTITLE0=South Of Heaven
TTITLE1=Where I'd Become
TTITLE2=Sad Days
TTITLE3=Run To You
TTITLE4=Coney Island
TTITLE5=X's For Eyes
TTITLE6=Lonely One
TTITLE7=Tramp Is Haire
TTITLE8=For The Horses
TTITLE9=New Leaves
EXTD=
EXTT0=
EXTT1=
EXTT2=
EXTT3=
EXTT4=
EXTT5=
EXTT6=
EXTT7=
EXTT8=
EXTT9=
PLAYORDER=
